<svg xmlns="http://www.w3.org/2000/svg" xmlns:xlink="http://www.w3.org/1999/xlink" width="37" height="32"><defs><path id="a" d="M1127.152 64.337a1.426 1.426 0 0 1-1.401-1.4c0-.862.646-1.509 1.4-1.509.862 0 1.509.647 1.509 1.509 0 .754-.647 1.4-1.508 1.4zm0-5.064a3.633 3.633 0 0 0-3.664 3.664 3.633 3.633 0 0 0 3.664 3.663 3.633 3.633 0 0 0 3.663-3.663 3.633 3.633 0 0 0-3.663-3.664z"/><path id="b" d="M1130.6 54.856h-19.071l-2.478-10.56h24.242zm4.417-13.36h-26.613l-1.293-5.064c-.108-.647-.646-1.078-1.293-1.078h-4.525c-1.724 0-1.724 2.694 0 2.694h3.448l4.417 18.532c.216.646.754 1.077 1.4 1.077h21.119c.646 0 1.185-.43 1.293-1.077l3.34-13.36c.215-.862-.431-1.724-1.293-1.724z"/><path id="c" d="M1113.791 64.337c-.754 0-1.4-.646-1.4-1.4 0-.862.646-1.509 1.4-1.509.862 0 1.509.647 1.509 1.509 0 .754-.647 1.4-1.509 1.4zm0-5.064a3.633 3.633 0 0 0-3.663 3.664 3.633 3.633 0 0 0 3.663 3.663 3.633 3.633 0 0 0 3.664-3.663 3.633 3.633 0 0 0-3.664-3.664z"/></defs><use fill="#fff" xlink:href="#a" transform="translate(-1100 -35)"/><use fill="#fff" xlink:href="#b" transform="translate(-1100 -35)"/><use fill="#fff" xlink:href="#c" transform="translate(-1100 -35)"/></svg>