<svg xmlns="http://www.w3.org/2000/svg" xmlns:xlink="http://www.w3.org/1999/xlink" width="74" height="80"><defs><path id="a" d="M96.129 75.762c-2.153 0-3.859 1.925-4.297 4.33-.106.584-.368 3.766 2.648 3.766 2.526 0 4.666-2.197 4.666-4.463 0-1.917-1.123-3.633-3.017-3.633"/><path id="b" d="M-45.147 411.001h279.292V-84.742H-45.147z"/><path id="o" d="M87.412 88.222h16.098V71.398H87.412z"/><path id="c" d="M132.73 60.888c2.695 25.763-.195 30.813-4.573 35.135l-.152.15c-3.262 3.243-7.695 4.957-12.819 4.957-3.625 0-6.426-.861-6.95-1.034a6.695 6.695 0 0 1-4.61-6.137c-2.933 2.003-6.373 3.077-10.023 3.077a16.15 16.15 0 0 1-3.546-.388 6.724 6.724 0 0 1-3.108 1.832l-17.047 4.55a6.77 6.77 0 0 1-5.71-1.052 6.683 6.683 0 0 1-2.763-5.076l-1.42-28.03c-.16-3.164 1.932-6.007 5.015-6.811l16.626-4.34a6.775 6.775 0 0 1 1.71-.22c.587 0 1.168.079 1.732.228 2.68-1.902 6.945-4.307 11.37-4.307 4.52 0 8.602 1.892 11.493 5.328.06.07.115.146.174.218a14.106 14.106 0 0 1 2.644-.267 10.636 10.636 0 0 1 3.324.515 6.718 6.718 0 0 1 3.777-2.509l6.524-1.621a6.764 6.764 0 0 1 5.498 1.012 6.686 6.686 0 0 1 2.834 4.79zM82.961 92.614l2.242-.598-.421-6.433-4.963 1.526-5.1 1.567-.15-4.994 4.375-1.336 4.47-1.365-.06-6.35-3.678 1.067-5.419 1.572-.104-4.76 7.085-1.851 2.123-.555v-5.91l-3.097.81-13.53 3.531 1.421 28.03zm20.358-7.895c1.573-2.55 2.561-6 2.561-10.432 0-6.85-1.95-10.643-4.456-12.544-1.55-1.174-3.314-1.627-4.962-1.627-2.244 0-4.714 1.258-6.57 2.467-1.711 1.115-2.9 2.187-2.9 2.187l.894 4.81a28.12 28.12 0 0 1 2.21-1.514c2.13-1.306 3.76-1.807 5.004-1.807 4.04 0 4.04 5.257 4.04 5.257s-.942-1.395-4.028-1.395c-1.973 0-3.824.803-5.36 2.077-2.476 2.055-4.128 5.338-4.128 8.47 0 5.378 2.17 8.773 6.208 9.517a9.755 9.755 0 0 0 1.771.157c3.664 0 7.352-1.793 9.716-5.623zm19.924 6.721c2.394-2.379 5.42-4.706 2.789-29.86l-6.524 1.62s.563 3.975.764 9.092c.067 1.718-.442 5.814-3.684 5.814l-.08-.001c-4.787-.097.405-10.982-4.577-12.55a3.261 3.261 0 0 0-.476-.108 4.488 4.488 0 0 0-.683-.052c-2.202 0-4.892 1.362-4.892 1.362v4.184s.374-.395.889-.395c.257 0 .55.098.848.395.894.889.279 3.556.49 6.25.112 1.435.45 4.818 3.096 6.4.866.516 1.978.842 3.411.842 4.683 0 6.42-4.053 6.42-4.053s.683 8.027-5.104 8.55a29.475 29.475 0 0 1-2.626.134c-2.553 0-2.951-.5-2.951-.5v5.177s2.11.695 4.833.695c2.56 0 5.66-.614 8.057-2.996z"/><path id="d" d="M-45.147 411.001h279.292V-84.742H-45.147z"/><path id="r" d="M55.636 107.623h82.5V49.058h-82.5z"/><path id="e" d="M85.676 50.833c5.709 0 8.734-3.086 8.734-3.086l-.136-4.13s-3.758 2.902-6.487 2.902c-2.769 0-2.584-1.987-2.584-1.987s2.157.732 5.419-1.046c3.262-1.778 3.877-3.488 3.877-6.02 0-3.472-4.901-3.707-7.56-2.87-2.393.753-6.735 2.82-6.735 9.413 0 4.837 2.894 6.824 5.472 6.824m1.92-12.368c2.378-.605 2.381 1.373 1.79 1.961-1.829 1.818-4.151 1.061-4.151 1.061s.31-2.499 2.362-3.022"/><path id="f" d="M-45.147 411.001h279.292V-84.742H-45.147z"/><path id="u" d="M75.84 55.197h23.023v-25.37H75.84z"/><path id="g" d="M101.355 46.728c9.787 0 9.208-8.524 9.208-8.524l-4.683.993s-.61 2.615-2.978 2.615c-3.946 0-2.757-6.937 1.063-6.937 1.231 0 1.625 1.218 1.625 1.218l4.71-1.393s-.421-4.863-5.893-4.863c-11.207 0-12.049 16.891-3.052 16.891"/><path id="h" d="M-45.147 411.001h279.292V-84.742H-45.147z"/><path id="x" d="M90.87 51.092h24.063v-25.62H90.87z"/><path id="i" d="M111.524 32.11c.712.707.222 2.83.39 4.973.118 1.516.552 5.763 5.179 5.763 3.726 0 5.108-3.225 5.108-3.225s.544 6.388-4.062 6.804c-3.923.355-4.438-.29-4.438-.29v4.12s6.322 2.08 10.258-1.832c1.905-1.894 4.313-3.746 2.22-23.763l-5.193 1.29s.449 3.163.609 7.235c.054 1.378-.358 4.68-2.995 4.626-3.81-.078.322-8.74-3.643-9.988-1.803-.568-4.815.957-4.815.957v3.33s.67-.708 1.382 0"/><path id="j" d="M-45.147 411.001h279.292V-84.742H-45.147z"/><path id="A" d="M105.778 55.17h25.575V20.297h-25.575z"/><path id="k" d="M77.763 30.495l-.787.225-4.91 1.4.013.432.228 7.725-6.414 1.674-.553-8.502L60 34.7l.947 23.22 5.788-1.674-.526-8.995 6.313-1.778.632 8.785 5.682-1.464z"/><path id="l" d="M-45.147 411.001h279.292V-84.742H-45.147z"/><path id="D" d="M55.636 62.283H83.2V26.131H55.636z"/><clipPath id="m"><use xlink:href="#a"/></clipPath><clipPath id="n"><use xlink:href="#b"/></clipPath><clipPath id="p"><use xlink:href="#c"/></clipPath><clipPath id="q"><use xlink:href="#d"/></clipPath><clipPath id="s"><use xlink:href="#e"/></clipPath><clipPath id="t"><use xlink:href="#f"/></clipPath><clipPath id="v"><use xlink:href="#g"/></clipPath><clipPath id="w"><use xlink:href="#h"/></clipPath><clipPath id="y"><use xlink:href="#i"/></clipPath><clipPath id="z"><use xlink:href="#j"/></clipPath><clipPath id="B"><use xlink:href="#k"/></clipPath><clipPath id="C"><use xlink:href="#l"/></clipPath><clipPath id="E"><use xlink:href="#c"/></clipPath><clipPath id="F"><use xlink:href="#d"/></clipPath><clipPath id="G"><use xlink:href="#e"/></clipPath><clipPath id="H"><use xlink:href="#f"/></clipPath><clipPath id="I"><use xlink:href="#g"/></clipPath><clipPath id="J"><use xlink:href="#h"/></clipPath><clipPath id="K"><use xlink:href="#i"/></clipPath><clipPath id="L"><use xlink:href="#j"/></clipPath><clipPath id="M"><use xlink:href="#k"/></clipPath><clipPath id="N"><use xlink:href="#l"/></clipPath></defs><use fill="#fff" xlink:href="#a" transform="translate(-60 -24)"/><g clip-path="url(#m)" transform="translate(-60 -24)"><use fill="#fff" xlink:href="#b"/><g clip-path="url(#n)"><use fill="#fff" xlink:href="#o"/></g></g><use fill="#fff" xlink:href="#c" transform="translate(-60 -24)"/><g clip-path="url(#p)" transform="translate(-60 -24)"><use fill="#fff" xlink:href="#d"/><g clip-path="url(#q)"><use fill="#fff" xlink:href="#r"/></g></g><use fill="#fff" xlink:href="#e" transform="translate(-60 -24)"/><g clip-path="url(#s)" transform="translate(-60 -24)"><use fill="#fff" xlink:href="#f"/><g clip-path="url(#t)"><use fill="#fff" xlink:href="#u"/></g></g><use fill="#fff" xlink:href="#g" transform="translate(-60 -24)"/><g clip-path="url(#v)" transform="translate(-60 -24)"><use fill="#fff" xlink:href="#h"/><g clip-path="url(#w)"><use fill="#fff" xlink:href="#x"/></g></g><use fill="#fff" xlink:href="#i" transform="translate(-60 -24)"/><g clip-path="url(#y)" transform="translate(-60 -24)"><use fill="#fff" xlink:href="#j"/><g clip-path="url(#z)"><use fill="#fff" xlink:href="#A"/></g></g><use fill="#fff" xlink:href="#k" transform="translate(-60 -24)"/><g clip-path="url(#B)" transform="translate(-60 -24)"><use fill="#fff" xlink:href="#l"/><g clip-path="url(#C)"><use fill="#fff" xlink:href="#D"/></g></g><g transform="translate(-60 -24)"><use fill="#fff" xlink:href="#c"/><g clip-path="url(#E)"><use fill="#fff" xlink:href="#d"/><g clip-path="url(#F)"><use fill="#fff" xlink:href="#r"/></g></g></g><g transform="translate(-60 -24)"><use fill="#fff" xlink:href="#e"/><g clip-path="url(#G)"><use fill="#fff" xlink:href="#f"/><g clip-path="url(#H)"><use fill="#fff" xlink:href="#u"/></g></g></g><g transform="translate(-60 -24)"><use fill="#fff" xlink:href="#g"/><g clip-path="url(#I)"><use fill="#fff" xlink:href="#h"/><g clip-path="url(#J)"><use fill="#fff" xlink:href="#x"/></g></g></g><g transform="translate(-60 -24)"><use fill="#fff" xlink:href="#i"/><g clip-path="url(#K)"><use fill="#fff" xlink:href="#j"/><g clip-path="url(#L)"><use fill="#fff" xlink:href="#A"/></g></g></g><g transform="translate(-60 -24)"><use fill="#fff" xlink:href="#k"/><g clip-path="url(#M)"><use fill="#fff" xlink:href="#l"/><g clip-path="url(#N)"><use fill="#fff" xlink:href="#D"/></g></g></g></svg>