<svg xmlns="http://www.w3.org/2000/svg" width="24.174" height="24.3" viewBox="0 0 24.174 24.3">
  <path id="Path_90" data-name="Path 90" d="M8.613-19.782A10.344,10.344,0,0,0-1.737-30.15a10.355,10.355,0,0,0-10.35,10.368A10.336,10.336,0,0,0-1.737-9.45a10.3,10.3,0,0,0,6.588-2.358L10.809-5.85l1.278-1.278-5.94-5.94A10.234,10.234,0,0,0,8.613-19.782ZM-1.737-11.25a8.463,8.463,0,0,1-3.33-.666,8.89,8.89,0,0,1-2.718-1.818A8.679,8.679,0,0,1-9.6-16.452a8.351,8.351,0,0,1-.684-3.33A8.568,8.568,0,0,1-9.6-23.13a8.89,8.89,0,0,1,1.818-2.718,8.434,8.434,0,0,1,2.718-1.836,8.726,8.726,0,0,1,3.33-.666,8.5,8.5,0,0,1,3.348.684,8.6,8.6,0,0,1,2.7,1.818,8.51,8.51,0,0,1,1.836,2.736,8.463,8.463,0,0,1,.666,3.33,8.313,8.313,0,0,1-.666,3.312,8.033,8.033,0,0,1-1.818,2.7,8.294,8.294,0,0,1-2.718,1.854A8.55,8.55,0,0,1-1.737-11.25Z" transform="translate(12.087 30.15)"/>
</svg>
