<svg xmlns="http://www.w3.org/2000/svg" xmlns:xlink="http://www.w3.org/1999/xlink" width="80" height="15" viewBox="0 0 80 15"><defs><path id="bedla" d="M208.877 57.539h-4.532v-8.873l-.047-.007c-.087.251-.178.5-.263.753-.895 2.652-1.79 5.304-2.68 7.958-.045.133-.103.186-.25.185-.86-.007-1.72-.008-2.58 0-.153.002-.213-.048-.261-.192-.969-2.871-1.944-5.74-2.918-8.61a.269.269 0 0 0-.095-.141v8.927c-.08.004-.141.011-.202.011-1.37 0-2.738-.002-4.106.004-.174.001-.222-.049-.222-.22.004-4.697.004-9.393 0-14.09 0-.181.05-.23.231-.23 1.896.006 3.793.006 5.689 0 .168 0 .24.06.3.207.92 2.27 1.848 4.536 2.774 6.803.023.056.05.11.094.202.124-.3.236-.562.344-.827.846-2.07 1.692-4.14 2.534-6.211.049-.12.106-.173.245-.173 1.921.005 3.842.004 5.764.004.055 0 .11.006.18.01v14.51z"/><path id="bedlb" d="M222.514 51.699h-7.248c-.004.08-.011.146-.011.212-.001.81.005 1.62-.005 2.43-.002.185.054.229.233.228 2.253-.006 4.507-.004 6.76-.004h.27v2.97H210.71v-.227c0-4.683.001-9.366-.003-14.05 0-.183.037-.246.236-.246 3.785.008 7.57.006 11.356.006h.215v2.996h-7.247v2.682h7.248v3.003z"/><path id="bedlc" d="M232.743 46.018V57.54c-.093.004-.165.01-.238.01l-4.05.001c-.244 0-.245 0-.245-.246V46.326v-.298h-4.303v-3c.067-.004.134-.01.2-.01 4.244 0 8.487 0 12.73-.004.186 0 .231.056.23.234-.01.854-.004 1.707-.004 2.561v.209h-4.32z"/><path id="bedld" d="M265.467 53.94c-.031.418-.246.623-.667.625-.967.003-1.933 0-2.9 0-.703 0-1.406.002-2.109 0-.476 0-.689-.215-.689-.69v-3.577-3.596c0-.481.205-.683.688-.683h5.027c.394 0 .606.189.648.578.006.062.005.126.005.188v7.005c0 .05 0 .1-.003.15zm4.532-8.2a2.72 2.72 0 0 0-2.732-2.722h-9.982a2.73 2.73 0 0 0-2.728 2.73v9.079a2.715 2.715 0 0 0 2.727 2.724h10.001A2.704 2.704 0 0 0 270 54.837V45.74z"/><path id="bedle" d="M248.637 48.059c-.001.4-.23.64-.625.641-1.626.003-3.25.001-4.877 0-.042 0-.085-.005-.146-.01v-2.672h4.994c.423 0 .653.227.654.647.002.465.002.93 0 1.394zm.864 3.66c.299-.017.561-.026.822-.047 1.213-.098 2.34-1.222 2.375-2.435.036-1.223.042-2.449.005-3.672-.044-1.411-1.27-2.546-2.687-2.547h-11.57v14.519h4.538v-5.835c.567 0 1.106.005 1.645-.004.146-.002.22.044.286.177.912 1.836 1.832 3.668 2.744 5.504.065.132.138.176.285.175 1.6-.005 3.201-.003 4.803-.004.059 0 .118-.006.207-.011l-3.453-5.82z"/></defs><g><g transform="translate(-190 -43)"><g><use fill="#fff" xlink:href="#bedla"/></g><g><use fill="#fff" xlink:href="#bedlb"/></g><g><use fill="#fff" xlink:href="#bedlc"/></g><g><use fill="#fff" xlink:href="#bedld"/></g><g><use fill="#fff" xlink:href="#bedle"/></g></g></g></svg>