<svg xmlns="http://www.w3.org/2000/svg" xmlns:xlink="http://www.w3.org/1999/xlink" width="51" height="54" viewBox="0 0 51 54"><defs><path id="3fpga" d="M84.878 2545.239c-1.469 0-2.632 1.313-2.931 2.955-.073.398-.252 2.569 1.806 2.569 1.723 0 3.183-1.499 3.183-3.045 0-1.308-.765-2.479-2.058-2.479"/><path id="3fpgb" d="M-11.513 2773.97h190.558v-338.242H-11.513z"/><path id="3fpgm" d="M78.93 2553.74h10.984v-11.478H78.931z"/><path id="3fpgc" d="M109.85 2535.09c1.84 17.578-.133 21.024-3.12 23.973l-.103.103c-2.226 2.212-5.25 3.381-8.746 3.381-2.473 0-4.385-.587-4.742-.705a4.568 4.568 0 0 1-3.145-4.187 12.038 12.038 0 0 1-6.839 2.099c-.84 0-1.648-.092-2.42-.265a4.588 4.588 0 0 1-2.12 1.25l-11.631 3.105a4.619 4.619 0 0 1-3.896-.718 4.56 4.56 0 0 1-1.885-3.463l-.97-19.125a4.57 4.57 0 0 1 3.422-4.647L75 2532.929a4.623 4.623 0 0 1 2.349.006c1.829-1.297 4.738-2.939 7.758-2.939 3.084 0 5.869 1.292 7.841 3.636.04.048.079.1.119.149a9.624 9.624 0 0 1 1.803-.182 7.257 7.257 0 0 1 2.268.35 4.584 4.584 0 0 1 2.578-1.71l4.451-1.107a4.612 4.612 0 0 1 3.751.69 4.562 4.562 0 0 1 1.934 3.269zm-33.956 21.647l1.53-.408-.288-4.389-3.386 1.04-3.48 1.07-.102-3.407 2.985-.911 3.05-.932-.04-4.332-2.51.728-3.698 1.072-.07-3.248 4.833-1.263 1.449-.378v-4.032l-2.114.551-9.23 2.41.97 19.125zm7.261-1.55c2.5 0 5.016-1.223 6.629-3.836 1.073-1.74 1.747-4.095 1.747-7.118 0-4.674-1.33-7.262-3.04-8.559-1.058-.801-2.26-1.11-3.385-1.11-1.531 0-3.217.859-4.483 1.683-1.168.76-1.98 1.492-1.98 1.492l.611 3.283c.54-.407 1.041-.748 1.508-1.034 1.453-.891 2.565-1.233 3.414-1.233 2.757 0 2.757 3.587 2.757 3.587s-.643-.951-2.749-.951c-1.346 0-2.609.547-3.656 1.417-1.69 1.402-2.818 3.641-2.818 5.778 0 3.67 1.48 5.986 4.236 6.494.38.07.782.107 1.209.107zm20.223.75c1.633-1.624 3.697-3.212 1.903-20.374l-4.452 1.106s.384 2.711.522 6.202c.046 1.173-.302 3.967-2.514 3.967h-.054c-3.267-.067.276-7.493-3.123-8.564a2.226 2.226 0 0 0-.325-.073 3.06 3.06 0 0 0-.466-.035c-1.502 0-3.338.93-3.338.93v2.853s.256-.269.607-.269c.175 0 .375.067.578.27.61.606.19 2.426.334 4.263.077.98.308 3.288 2.113 4.367.59.353 1.35.575 2.328.575 3.195 0 4.38-2.765 4.38-2.765s.466 5.477-3.483 5.834c-.724.065-1.313.09-1.791.09-1.743 0-2.014-.34-2.014-.34v3.532s1.44.474 3.298.474c1.747 0 3.862-.418 5.497-2.044z"/><path id="3fpgd" d="M-11.513 2773.97h190.558v-338.242H-11.513z"/><path id="3fpgp" d="M57.25 2566.977h56.29v-39.958H57.25z"/><path id="3fpge" d="M77.746 2528.23c3.895 0 5.96-2.105 5.96-2.105l-.094-2.818s-2.563 1.98-4.426 1.98c-1.888 0-1.763-1.356-1.763-1.356s1.472.5 3.698-.714c2.226-1.213 2.645-2.38 2.645-4.107 0-2.369-3.344-2.53-5.158-1.958-1.633.513-4.595 1.924-4.595 6.422 0 3.3 1.974 4.656 3.733 4.656m1.31-8.438c1.623-.413 1.625.936 1.221 1.338-1.247 1.24-2.832.724-2.832.724s.212-1.705 1.612-2.062"/><path id="3fpgs" d="M71.036 2531.208h15.708v-17.31H71.036z"/><path id="3fpgf" d="M88.444 2525.43c6.677 0 6.282-5.816 6.282-5.816l-3.195.677s-.416 1.784-2.032 1.784c-2.692 0-1.88-4.733.726-4.733.84 0 1.109.831 1.109.831l3.213-.95s-.287-3.318-4.02-3.318c-7.647 0-8.222 11.524-2.083 11.524"/><path id="3fpgv" d="M81.29 2528.407h16.418v-17.48H81.29z"/><path id="3fpgg" d="M95.382 2515.455c.486.483.152 1.931.266 3.394.08 1.034.377 3.932 3.533 3.932 2.543 0 3.486-2.2 3.486-2.2s.371 4.358-2.771 4.642c-2.677.242-3.028-.199-3.028-.199v2.811s4.313 1.42 6.999-1.25c1.3-1.291 2.942-2.555 1.514-16.212l-3.543.88s.306 2.158.415 4.936c.037.94-.244 3.193-2.043 3.156-2.6-.052.22-5.963-2.485-6.814-1.23-.388-3.286.653-3.286.653v2.271s.457-.482.943 0"/><path id="3fpgh" d="M-11.513 2773.97h190.558v-338.242H-11.513z"/><path id="3fpgy" d="M91.462 2531.19h17.449v-23.795H91.46z"/><path id="3fpgi" d="M72.347 2514.354l-.537.153-3.35.956.01.294.155 5.271-4.377 1.142-.377-5.8-3.643.853.646 15.842 3.949-1.142-.36-6.137 4.309-1.213.43 5.994 3.877-.999z"/><path id="3fpgj" d="M-11.513 2773.97h190.558v-338.242H-11.513z"/><path id="3fpgB" d="M57.25 2536.042h18.807v-24.666H57.25z"/><clipPath id="3fpgk"><use xlink:href="#3fpga"/></clipPath><clipPath id="3fpgl"><use xlink:href="#3fpgb"/></clipPath><clipPath id="3fpgn"><use xlink:href="#3fpgc"/></clipPath><clipPath id="3fpgo"><use xlink:href="#3fpgd"/></clipPath><clipPath id="3fpgq"><use xlink:href="#3fpge"/></clipPath><clipPath id="3fpgr"><use xlink:href="#3fpgd"/></clipPath><clipPath id="3fpgt"><use xlink:href="#3fpgf"/></clipPath><clipPath id="3fpgu"><use xlink:href="#3fpgd"/></clipPath><clipPath id="3fpgw"><use xlink:href="#3fpgg"/></clipPath><clipPath id="3fpgx"><use xlink:href="#3fpgh"/></clipPath><clipPath id="3fpgz"><use xlink:href="#3fpgi"/></clipPath><clipPath id="3fpgA"><use xlink:href="#3fpgj"/></clipPath><clipPath id="3fpgC"><use xlink:href="#3fpgc"/></clipPath><clipPath id="3fpgD"><use xlink:href="#3fpgd"/></clipPath><clipPath id="3fpgE"><use xlink:href="#3fpge"/></clipPath><clipPath id="3fpgF"><use xlink:href="#3fpgd"/></clipPath><clipPath id="3fpgG"><use xlink:href="#3fpgf"/></clipPath><clipPath id="3fpgH"><use xlink:href="#3fpgd"/></clipPath><clipPath id="3fpgI"><use xlink:href="#3fpgg"/></clipPath><clipPath id="3fpgJ"><use xlink:href="#3fpgh"/></clipPath><clipPath id="3fpgK"><use xlink:href="#3fpgi"/></clipPath><clipPath id="3fpgL"><use xlink:href="#3fpgj"/></clipPath></defs><g><g transform="translate(-60 -2510)"><g><g><use fill="#00e6a5" xlink:href="#3fpga"/></g><g clip-path="url(#3fpgk)"><g><use fill="#00e6a5" xlink:href="#3fpgb"/></g><g clip-path="url(#3fpgl)"><use fill="#00e6a5" xlink:href="#3fpgm"/></g></g></g><g><g><use fill="#00e6a5" xlink:href="#3fpgc"/></g><g clip-path="url(#3fpgn)"><g><use fill="#00e6a5" xlink:href="#3fpgd"/></g><g clip-path="url(#3fpgo)"><use fill="#00e6a5" xlink:href="#3fpgp"/></g></g></g><g><g><use fill="#00e6a5" xlink:href="#3fpge"/></g><g clip-path="url(#3fpgq)"><g><use fill="#00e6a5" xlink:href="#3fpgd"/></g><g clip-path="url(#3fpgr)"><use fill="#00e6a5" xlink:href="#3fpgs"/></g></g></g><g><g><use fill="#00e6a5" xlink:href="#3fpgf"/></g><g clip-path="url(#3fpgt)"><g><use fill="#00e6a5" xlink:href="#3fpgd"/></g><g clip-path="url(#3fpgu)"><use fill="#00e6a5" xlink:href="#3fpgv"/></g></g></g><g><g><use fill="#00e6a5" xlink:href="#3fpgg"/></g><g clip-path="url(#3fpgw)"><g><use fill="#00e6a5" xlink:href="#3fpgh"/></g><g clip-path="url(#3fpgx)"><use fill="#00e6a5" xlink:href="#3fpgy"/></g></g></g><g><g><use fill="#00e6a5" xlink:href="#3fpgi"/></g><g clip-path="url(#3fpgz)"><g><use fill="#00e6a5" xlink:href="#3fpgj"/></g><g clip-path="url(#3fpgA)"><use fill="#00e6a5" xlink:href="#3fpgB"/></g></g></g><g><g><use fill="#00e6a5" xlink:href="#3fpgc"/></g><g clip-path="url(#3fpgC)"><g><use fill="#00e6a5" xlink:href="#3fpgd"/></g><g clip-path="url(#3fpgD)"><use fill="#00e6a5" xlink:href="#3fpgp"/></g></g></g><g><g><use fill="#00e6a5" xlink:href="#3fpge"/></g><g clip-path="url(#3fpgE)"><g><use fill="#00e6a5" xlink:href="#3fpgd"/></g><g clip-path="url(#3fpgF)"><use fill="#00e6a5" xlink:href="#3fpgs"/></g></g></g><g><g><use fill="#00e6a5" xlink:href="#3fpgf"/></g><g clip-path="url(#3fpgG)"><g><use fill="#00e6a5" xlink:href="#3fpgd"/></g><g clip-path="url(#3fpgH)"><use fill="#00e6a5" xlink:href="#3fpgv"/></g></g></g><g><g><use fill="#00e6a5" xlink:href="#3fpgg"/></g><g clip-path="url(#3fpgI)"><g><use fill="#00e6a5" xlink:href="#3fpgh"/></g><g clip-path="url(#3fpgJ)"><use fill="#00e6a5" xlink:href="#3fpgy"/></g></g></g><g><g><use fill="#00e6a5" xlink:href="#3fpgi"/></g><g clip-path="url(#3fpgK)"><g><use fill="#00e6a5" xlink:href="#3fpgj"/></g><g clip-path="url(#3fpgL)"><use fill="#00e6a5" xlink:href="#3fpgB"/></g></g></g></g></g></svg>