<svg xmlns="http://www.w3.org/2000/svg" xmlns:xlink="http://www.w3.org/1999/xlink" width="18" height="17" viewBox="0 0 18 17"><defs><path id="i3gba" d="M70.488 373.625l4.703 6.416c.516.702.793 1.55.791 2.42v3.762c-.003.308.12.604.341.818.22.211.514.327.818.322a1.14 1.14 0 0 0 1.105-1.14v-3.762a4.067 4.067 0 0 1 .791-2.417l4.703-6.419zM77.114 389a2.769 2.769 0 0 1-2.769-2.777v-3.762c0-.522-.166-1.03-.475-1.451l-5.278-7.205-.033-.049a1.154 1.154 0 0 1 .98-1.765h15.153a1.154 1.154 0 0 1 .98 1.765l-.033.05-5.281 7.204c-.309.42-.475.93-.475 1.451v3.762a2.785 2.785 0 0 1-2.709 2.769z"/></defs><g><g transform="translate(-68 -372)"><use fill="#4a4a4a" xlink:href="#i3gba"/></g></g></svg>