<svg xmlns="http://www.w3.org/2000/svg" xmlns:xlink="http://www.w3.org/1999/xlink" width="24" height="25" viewBox="0 0 24 25"><defs><path id="zw44a" d="M818.263 55.833a8.463 8.463 0 0 1-3.33-.666 8.89 8.89 0 0 1-2.718-1.818 8.68 8.68 0 0 1-1.818-2.718 8.351 8.351 0 0 1-.684-3.33c0-1.152.234-2.286.684-3.348a8.89 8.89 0 0 1 1.818-2.718 8.434 8.434 0 0 1 2.718-1.836 8.726 8.726 0 0 1 3.33-.666 8.6 8.6 0 0 1 6.048 2.502 8.51 8.51 0 0 1 1.836 2.736 8.463 8.463 0 0 1 .666 3.33 8.313 8.313 0 0 1-.666 3.312 8.033 8.033 0 0 1-1.818 2.7 8.294 8.294 0 0 1-2.718 1.854 8.55 8.55 0 0 1-3.348.666zm10.35-8.532c.018-5.652-4.554-10.368-10.35-10.368-5.724 0-10.332 4.626-10.35 10.368a10.336 10.336 0 0 0 10.35 10.332c2.502 0 4.806-.882 6.588-2.358l5.958 5.958 1.278-1.278-5.94-5.94c1.548-1.8 2.466-4.14 2.466-6.714z"/></defs><g><g transform="translate(-808 -37)"><use fill="#bcbcbc" xlink:href="#zw44a"/></g></g></svg>